<?xml version="1.0" standalone="no"?>
<!DOCTYPE svg PUBLIC "-//W3C//DTD SVG 20010904//EN"
 "http://www.w3.org/TR/2001/REC-SVG-20010904/DTD/svg10.dtd">
<svg version="1.0" xmlns="http://www.w3.org/2000/svg"
 width="517.000000pt" height="309.000000pt" viewBox="0 0 517.000000 309.000000"
 preserveAspectRatio="xMidYMid meet">
<metadata>
Created by potrace 1.15, written by Peter Selinger 2001-2017
</metadata>
<g transform="translate(0.000000,309.000000) scale(0.100000,-0.100000)"
fill="#000000" stroke="none">
<path d="M965 2511 c-28 -27 -55 -39 -274 -115 -75 -27 -93 -48 -111 -131 -7
-33 -34 -122 -61 -197 -58 -166 -79 -269 -79 -395 0 -74 -4 -102 -20 -133
l-20 -39 26 -168 c15 -92 26 -192 25 -221 -1 -29 5 -76 14 -104 8 -29 15 -63
15 -77 0 -27 79 -221 89 -221 3 0 16 16 29 36 13 20 25 34 27 32 3 -2 -2 -27
-9 -56 -8 -28 -17 -74 -21 -101 l-7 -50 95 97 c123 127 156 173 221 306 82
166 103 239 117 401 14 162 7 625 -13 830 -14 155 -16 270 -4 308 11 35 -2 34
-39 -2z"/>
<path d="M1404 2442 c0 -55 -8 -123 -17 -157 -54 -202 -137 -697 -137 -820 0
-222 96 -514 214 -652 37 -43 284 -213 309 -213 10 0 16 19 20 74 4 42 18 104
33 142 55 146 63 173 74 256 5 47 17 108 25 136 19 64 22 161 7 277 -21 160
-32 266 -47 445 -15 187 -21 210 -83 334 -39 78 -42 80 -94 97 -29 10 -64 18
-78 18 -14 1 -45 14 -70 31 -24 16 -56 32 -70 35 -16 4 -33 19 -45 40 -35 65
-40 60 -41 -43z m269 -900 c4 -53 10 -173 12 -267 l4 -170 -18 50 c-10 28 -28
73 -41 100 -31 67 -36 132 -17 203 9 31 19 82 22 112 13 115 25 106 38 -28z"/>
<path d="M1115 2400 c-17 -19 -17 -23 -2 -60 11 -29 13 -49 7 -72 -23 -84 -49
-723 -50 -1201 l0 -169 32 -44 32 -44 39 37 39 38 -6 440 c-4 242 -11 564 -16
715 -8 265 -8 276 11 296 10 11 19 27 19 35 -1 47 -71 66 -105 29z"/>
<path d="M2525 2217 c-173 -45 -332 -220 -407 -447 -26 -79 -32 -115 -35 -215
-4 -111 -3 -124 19 -165 16 -31 30 -46 47 -48 23 -4 23 -3 16 57 -14 120 30
337 99 486 93 201 214 308 346 308 72 0 113 -22 147 -81 25 -42 28 -59 31
-154 8 -215 -89 -517 -208 -650 -35 -39 -40 -42 -60 -30 -85 51 -140 72 -194
72 -43 0 -61 -5 -76 -20 -37 -37 -20 -104 36 -141 36 -24 127 -26 183 -3 l40
16 53 -40 c29 -22 62 -44 73 -49 37 -19 96 -24 130 -13 32 11 85 61 85 80 0 5
-24 6 -54 3 -54 -6 -90 2 -175 39 l-43 18 61 65 c143 153 240 392 241 589 0
147 -53 262 -142 305 -56 27 -148 34 -213 18z m-152 -908 c12 -7 42 -28 66
-47 l44 -36 -29 -13 c-16 -6 -52 -12 -81 -13 -41 0 -58 5 -82 26 -29 25 -42
70 -24 87 10 11 82 8 106 -4z"/>
<path d="M4044 1711 c-54 -25 -81 -61 -152 -211 -33 -69 -76 -144 -95 -166
-62 -71 -138 -93 -178 -53 -19 19 -21 30 -16 78 6 63 25 111 92 227 48 84 54
111 30 120 -42 16 -109 -68 -161 -203 -23 -60 -53 -114 -81 -148 -68 -84 -157
-127 -191 -93 -27 27 -5 129 57 272 23 53 17 76 -23 76 -17 0 -33 -25 -85
-126 -68 -133 -140 -224 -178 -224 -74 0 -69 158 8 311 21 42 25 59 16 68 -36
36 -73 -7 -117 -137 -38 -114 -40 -194 -7 -242 50 -74 120 -57 200 48 l47 63
0 -51 c0 -65 11 -86 54 -100 59 -19 143 16 207 87 19 21 39 39 44 40 10 3 11
0 13 -48 3 -41 44 -79 88 -79 118 0 186 60 283 248 80 156 119 201 178 209 34
4 43 2 57 -18 9 -13 16 -37 16 -54 0 -48 -49 -136 -97 -171 -42 -32 -42 -32
-21 -50 25 -23 49 -68 59 -112 8 -37 -3 -47 -121 -117 -120 -71 -177 -120
-196 -171 -16 -41 -16 -49 -3 -72 18 -33 62 -45 122 -32 144 30 262 165 274
314 5 58 9 64 63 121 43 45 72 90 113 175 63 132 105 179 164 187 50 7 68 -14
67 -76 -1 -71 -46 -146 -106 -177 l-28 -14 35 -46 c19 -25 38 -56 41 -69 13
-53 3 -66 -111 -136 -137 -84 -201 -143 -210 -193 -18 -93 88 -121 213 -57 95
50 183 185 188 290 2 51 6 57 57 110 52 52 105 137 93 148 -2 3 -13 -12 -24
-34 -20 -38 -116 -143 -131 -143 -5 0 -14 13 -21 29 -6 16 -25 41 -41 57 -16
15 -29 31 -29 35 0 3 18 19 41 35 57 39 99 103 106 162 6 58 -6 85 -50 112
-40 25 -70 25 -124 1 -55 -25 -90 -76 -150 -214 -39 -90 -58 -121 -102 -166
l-55 -54 -15 22 c-9 13 -32 41 -51 63 l-35 41 25 16 c83 55 130 126 130 199 0
88 -88 135 -176 93z m43 -547 c-19 -118 -152 -253 -250 -254 -65 0 -52 92 21
148 43 33 214 140 226 141 5 1 6 -15 3 -35z m433 14 c0 -39 -55 -141 -101
-186 -49 -48 -112 -82 -152 -82 -62 0 -55 85 11 141 38 32 221 148 235 149 4
0 7 -10 7 -22z"/>
</g>
</svg>
